<?xml version="1.0" encoding="UTF-8" standalone="no"?>
<svg
   xmlns:dc="http://purl.org/dc/elements/1.1/"
   xmlns:cc="http://creativecommons.org/ns#"
   xmlns:rdf="http://www.w3.org/1999/02/22-rdf-syntax-ns#"
   xmlns:svg="http://www.w3.org/2000/svg"
   xmlns="http://www.w3.org/2000/svg"
   xmlns:sodipodi="http://sodipodi.sourceforge.net/DTD/sodipodi-0.dtd"
   xmlns:inkscape="http://www.inkscape.org/namespaces/inkscape"
   version="1.1"
   x="0px"
   y="0px"
   viewBox="0 0 300 100"
   xml:space="preserve"
   id="svg914"
   sodipodi:docname="stats.svg"
   width="300"
   height="100"
   inkscape:version="0.92.3 (2405546, 2018-03-11)"
   inkscape:export-filename="/home/aquiles/Documents/Web/Privalytics/website/static/privalytics/img/analytics.png"
   inkscape:export-xdpi="200"
   inkscape:export-ydpi="200"><metadata
     id="metadata920"><rdf:RDF><cc:Work
         rdf:about=""><dc:format>image/svg+xml</dc:format><dc:type
           rdf:resource="http://purl.org/dc/dcmitype/StillImage" /><dc:title></dc:title></cc:Work></rdf:RDF></metadata><defs
     id="defs918" /><sodipodi:namedview
     pagecolor="#ffffff"
     bordercolor="#666666"
     borderopacity="1"
     objecttolerance="10"
     gridtolerance="10"
     guidetolerance="10"
     inkscape:pageopacity="0"
     inkscape:pageshadow="2"
     inkscape:window-width="3106"
     inkscape:window-height="1689"
     id="namedview916"
     showgrid="false"
     fit-margin-top="0"
     fit-margin-left="0"
     fit-margin-right="0"
     fit-margin-bottom="0"
     inkscape:zoom="3.776"
     inkscape:cx="77.484769"
     inkscape:cy="57.017936"
     inkscape:window-x="94"
     inkscape:window-y="55"
     inkscape:window-maximized="1"
     inkscape:current-layer="svg914" /><g
     id="g6845"
     transform="matrix(0.68702603,0,0,0.68702603,115.99221,-53.740931)"><path
       style="fill:#0e6ae4;fill-opacity:0.85098039;stroke:none;stroke-opacity:1"
       inkscape:connector-curvature="0"
       id="path902"
       d="m 97,196 h -3.6 v -61 c 0,-1.1 -0.9,-2 -2,-2 H 79.6 c -1.1,0 -2,0.9 -2,2 v 61 h -8.2 v -35 c 0,-1.1 -0.9,-2 -2,-2 H 55.6 c -1.1,0 -2,0.9 -2,2 v 35 h -8.2 v -49 c 0,-1.1 -0.9,-2 -2,-2 H 31.6 c -1.1,0 -2,0.9 -2,2 v 49 h -8.2 v -27 c 0,-1.1 -0.9,-2 -2,-2 H 7.6 c -1.1,0 -2,0.9 -2,2 v 27 H 2 c -1.1,0 -2,0.9 -2,2 0,1.1 0.9,2 2,2 h 95 c 1.1,0 2,-0.9 2,-2 0,-1.1 -0.9,-2 -2,-2 z M 81.6,137 h 7.8 v 59 h -7.8 z m -24,26 h 7.8 v 33 h -7.8 z m -24,-14 h 7.8 v 47 h -7.8 z m -24,22 h 7.8 v 25 H 9.6 Z" /><path
       style="fill:#0e6ae4;fill-opacity:0.85098039;stroke:none;stroke-opacity:1"
       inkscape:connector-curvature="0"
       id="path904"
       d="m 85.5,102 c -4.4,0 -8,3.6 -8,8 0,1.6 0.5,3.2 1.4,4.4 l -14.3,14.2 c -1,-0.4 -2,-0.6 -3.1,-0.6 -1.9,0 -3.7,0.7 -5,1.8 l -11,-6.9 c 0,-0.3 0.1,-0.6 0.1,-0.9 0,-4.4 -3.6,-8 -8,-8 -4.4,0 -8,3.6 -8,8 0,1.1 0.2,2.2 0.7,3.2 l -13.7,11.4 c -0.9,-0.4 -2,-0.6 -3.1,-0.6 -4.4,0 -8,3.6 -8,8 0,4.4 3.6,8 8,8 4.4,0 8,-3.6 8,-8 0,-1.8 -0.6,-3.5 -1.7,-4.9 l 12.8,-10.8 c 1.3,1 3,1.7 4.9,1.7 2.7,0 5,-1.3 6.5,-3.3 l 10.1,6.3 c -0.4,0.9 -0.6,1.9 -0.6,3 0,4.4 3.6,8 8,8 4.4,0 8,-3.6 8,-8 0,-1.8 -0.6,-3.5 -1.7,-4.9 l 14,-14 c 1.1,0.6 2.3,0.9 3.7,0.9 4.4,0 8,-3.6 8,-8 0,-4.4 -3.6,-8 -8,-8 z m -72,46 c -2.2,0 -4,-1.8 -4,-4 0,-2.2 1.8,-4 4,-4 2.2,0 4,1.8 4,4 0,2.2 -1.8,4 -4,4 z m 24,-22 c -2.2,0 -4,-1.8 -4,-4 0,-2.2 1.8,-4 4,-4 2.2,0 4,1.8 4,4 0,2.2 -1.8,4 -4,4 z m 24,14 c -2.2,0 -4,-1.8 -4,-4 0,-2.2 1.8,-4 4,-4 2.2,0 4,1.8 4,4 0,2.2 -1.8,4 -4,4 z m 24,-26 c -2.2,0 -4,-1.8 -4,-4 0,-2.2 1.8,-4 4,-4 2.2,0 4,1.8 4,4 0,2.2 -1.8,4 -4,4 z" /></g></svg>