<?xml version="1.0" encoding="UTF-8" standalone="no"?>
<svg
   xmlns:dc="http://purl.org/dc/elements/1.1/"
   xmlns:cc="http://creativecommons.org/ns#"
   xmlns:rdf="http://www.w3.org/1999/02/22-rdf-syntax-ns#"
   xmlns:svg="http://www.w3.org/2000/svg"
   xmlns="http://www.w3.org/2000/svg"
   xmlns:sodipodi="http://sodipodi.sourceforge.net/DTD/sodipodi-0.dtd"
   xmlns:inkscape="http://www.inkscape.org/namespaces/inkscape"
   version="1.1"
   x="0px"
   y="0px"
   viewBox="0 0 300 100"
   enable-background="new 0 0 100 100"
   xml:space="preserve"
   id="svg5959"
   sodipodi:docname="user.svg"
   width="300"
   height="100"
   inkscape:version="0.92.3 (2405546, 2018-03-11)"
   inkscape:export-filename="/home/aquiles/Documents/Web/Privalytics/website/static/privalytics/img/user.png"
   inkscape:export-xdpi="200"
   inkscape:export-ydpi="200"><metadata
     id="metadata5965"><rdf:RDF><cc:Work
         rdf:about=""><dc:format>image/svg+xml</dc:format><dc:type
           rdf:resource="http://purl.org/dc/dcmitype/StillImage" /><dc:title></dc:title></cc:Work></rdf:RDF></metadata><defs
     id="defs5963" /><sodipodi:namedview
     pagecolor="#ffffff"
     bordercolor="#666666"
     borderopacity="1"
     objecttolerance="10"
     gridtolerance="10"
     guidetolerance="10"
     inkscape:pageopacity="0"
     inkscape:pageshadow="2"
     inkscape:window-width="3106"
     inkscape:window-height="1689"
     id="namedview5961"
     showgrid="false"
     fit-margin-top="0"
     fit-margin-left="0"
     fit-margin-right="0"
     fit-margin-bottom="0"
     inkscape:zoom="2.6700352"
     inkscape:cx="-9.6765004"
     inkscape:cy="-39.067237"
     inkscape:window-x="94"
     inkscape:window-y="55"
     inkscape:window-maximized="1"
     inkscape:current-layer="svg5959" /><path
     d="m 182.31228,83.664276 c 0.93592,0 1.69551,-0.727885 1.69551,-1.624742 0,-13.457751 -8.5632,-25.57671 -21.17274,-30.493996 4.58552,-3.653236 7.51113,-9.158678 7.51113,-15.306707 0,-10.974329 -9.3177,-19.903106 -20.77006,-19.903106 -11.45235,0 -20.77006,8.928777 -20.77006,19.903106 0,6.150466 2.92731,11.657533 7.51622,15.311581 -12.28061,4.832799 -20.33007,16.707236 -20.33007,30.489122 0,0.896857 0.75959,1.624742 1.69551,1.624742 0.93593,0 1.69552,-0.727885 1.69552,-1.624742 0,-13.249782 8.18425,-24.529563 20.41739,-28.246164 2.91544,1.4972 6.24289,2.348567 9.77549,2.348567 3.53261,0 6.86005,-0.851366 9.77549,-2.348567 12.54596,3.802712 21.26515,15.339202 21.26515,28.246164 0,0.89767 0.75874,1.624742 1.69552,1.624742 z M 132.19709,36.23883 c 0,-9.18305 7.79598,-16.65362 17.37903,-16.65362 9.58305,0 17.37903,7.47057 17.37903,16.65362 0,9.18305 -7.79598,16.653619 -17.37903,16.653619 -9.58305,0 -17.37903,-7.47057 -17.37903,-16.653619 z"
     id="path5953"
     inkscape:connector-curvature="0"
     style="fill:#0e6ae4;fill-opacity:0.85098039;stroke-width:0.82987601" /></svg>